<?xml version="1.0" encoding="utf-8"?>
<!-- Generator: Adobe Illustrator 26.0.2, SVG Export Plug-In . SVG Version: 6.00 Build 0)  -->
<svg version="1.1" id="Layer_1" xmlns="http://www.w3.org/2000/svg" xmlns:xlink="http://www.w3.org/1999/xlink" x="0px" y="0px"
	 viewBox="0 0 830 300" style="enable-background:new 0 0 830 300;" xml:space="preserve">
<style type="text/css">
	.st0{clip-path:url(#SVGID_00000121237635537419259890000006032401816858115225_);fill:#CFCFCE;}
	.st1{clip-path:url(#SVGID_00000121237635537419259890000006032401816858115225_);fill:none;}
	.st2{clip-path:url(#SVGID_00000121237635537419259890000006032401816858115225_);fill:#A23166;}
	.st3{clip-path:url(#SVGID_00000121237635537419259890000006032401816858115225_);}
	.st4{fill:#EB62A0;}
	.st5{fill:#ED60A1;}
</style>
<g>
	<defs>
		<rect id="SVGID_1_" width="830" height="300"/>
	</defs>
	<clipPath id="SVGID_00000175285528416211196640000004988478248982833555_">
		<use xlink:href="#SVGID_1_"  style="overflow:visible;"/>
	</clipPath>
	
		<rect style="clip-path:url(#SVGID_00000175285528416211196640000004988478248982833555_);fill:#CFCFCE;" width="830" height="300"/>
	<path style="clip-path:url(#SVGID_00000175285528416211196640000004988478248982833555_);fill:#A23166;" d="M630.22,316.69
		c-1.54,0.91-3.06-14.11-4.64-13.27c-7.49,3.98-15.91-3.51-21.28,3.78c-0.51,0.69-1.65-2.84-2.56-2.74c-7,0.8-12.55,4.3-17.73,8.84
		c-1.28,1.12-3.61,1.39-5.47,1.42c-2.87,0.05-6.07-1.34-8.55-0.47c-3.17,1.12-6.65,3.32-8.35,6.07c-1.7,2.75-1.46,6.84-2,9.93
		c-3.94-3.12-7.18-2.85-11.67,1.6c-8.06,7.98-9.61,7.94-20.08,2.89c-4.15-2-9.03-2.47-13.57-3.69c-1.32-0.37-3.54-0.72-3.68-1.41
		c-0.31-1.57,0.13-3.45,0.77-5.01c1-2.44,2.39-4.73,3.64-7.06c0.37-0.68,0.7-1.66,1.28-1.87c5.93-2.15,5.6-7.44,4.56-11.6
		c-1.58-6.22-0.52-12.1,0.4-18c1.07-6.85,3.99-12.79,12-15.1c-0.4,1.93-0.98,3.51-0.95,5.07c0.02,1.04,0.71,2.55,1.53,2.95
		c0.91,0.44,3.33-0.03,3.36-0.31c0.57-4.93,2.24-10.28,0.91-14.73c-1.6-5.39-1.71-7.2,3.36-10.26c2.35-1.42,4.91-4.51,5.1-7.02
		c0.31-4.04,2.33-5.78,5.17-7.76c1.97-1.37,3.51-3.42,5.03-5.33c1.2-1.49,2.1-3.24,3.1-4.9c0.75-1.23,2.12-2.55,2.03-3.73
		c-0.4-5.54-1.1-11.05-2.09-16.52c-0.28-1.49-2.52-3.99-3.13-3.79c-1.75,0.57-3.85,1.99-4.53,3.61c-2.36,5.63-8.84,8.29-14.47,5.93
		c-0.2-0.08-0.4-0.18-0.6-0.27c-2.77-1.32-4.67-0.92-5.6,2.3c-0.8,2.82-1.51,5.71-2.76,8.33c-0.9,1.89-2.61,3.39-4.26,5.45
		c0-2.84,0.57-4.79-0.17-5.81c-0.68-0.94-2.81-0.75-4.19-1.31c-1.38-0.56-2.58-1.44-3.86-2.19l0.77-1.75
		c2.83,2.76,5.83,3.25,7.23-0.37c0.45-1.16-1.87-3.87-3.48-5.22c-2.8-2.36-4.07-4.5-1.53-7.23c1.87,1.18,3.6,3.13,4.85,2.85
		c1.49-0.32,3.61-2.55,3.64-3.97c0.07-5.34,2.03-11.38-3.89-15.26c-0.4-0.26-0.95-0.72-0.95-1.12c-0.03-2.61,0.07-5.22,0.13-7.83
		c1.15,1.26,2.24,2.55,3.46,3.76c0.44,0.44,1.2,0.57,1.62,1.03c3.03,3.36,4.9,7.01,3.81,11.78c-0.58,2.52-1.43,5.46-0.64,7.67
		c0.75,2.1,3.73,5.18,5.27,4.93c6.82-1.14,13.98-2.51,18.57-8.46c2.76-3.58,4.73-7.78,7.12-11.66c1.69-2.73,1.46-4.73-1.52-6.52
		c-1.2-0.73-1.76-2.53-2.61-3.85c0.37,0.05,0.75,0.06,1.12,0.02c0.15,0.37,0.29,0.78,0.42,1.18l0.85-0.29
		c-0.04-0.46-0.09-0.93-0.13-1.39c1.16-1.28-0.59-4.45,0.92-4.88c5,2.1,9.35,4.27,13.93,5.72c1.73,0.55,3.84,0.43,4.85-1.33
		c0.64-0.12,1.27-0.28,1.9-0.47c-1.72-4.14-2.64-5.2-5.47-4.64l0,0c-3.64-1.36-8.32-2.82-10.02-5.73c-0.87-1.49-2.08-3.19-2.75-5.17
		c-0.18-1.26-0.31-2.54-0.45-3.82c0.06-0.56,0.18-1.11,0.35-1.64c1.01-3.21,1.16-7.41-2.42-10.38c-1.12-0.93-1.25-3.1-1.72-4.74
		c-1.49-5.26-2.81-10.57-4.48-15.78c-1.12-3.53-2.67-6.93-4.1-10.35c-0.55-1.3-1.1-2.59-1.66-3.87c-0.46-1.42-1.06-2.8-1.8-4.1
		c-0.69-1.57-1.4-3.15-2.09-4.73c-1.08-2.44-2.32-4.83-3.24-7.33c-0.03-1.25,0.07-2.53-0.37-3.59c-3.04-7.07-6.26-14.06-9.66-20.96
		c-0.75-1.49-2.31-2.56-3.56-3.81c-1.24-2.08-2.51-4.16-3.79-6.23c-0.75-1.66-1.49-3.3-2.67-4.54l-0.31-0.31l-0.84-1.37
		c-0.37-0.63-1.35-0.88-1.98-1.39c-2.21-1.79-4.64-3.38-6.74-5.27l-0.24-0.26c-0.69-0.77-1.39-1.5-2.1-2.19
		c-7.37-8.23-16.48-11.46-27.32-9.58c-1.15,0.2-1.87,0.16-2.29-0.05c1.08-2.53,1.95-4.59,2.83-6.63c-4.13-1.05-7.83-2.61-9.02-7.81
		c-0.75-3.19-2.45-6.2-4.1-9.09c-0.8-1.41-2.42-2.36-3.66-3.53c-1.17-1.1-2.81-1.99-3.41-3.36c-2.98-6.71-5.8-13.34-15.06-12.27
		c-0.35,0.04-0.7,0.09-1.06,0.14l-0.17-0.15c-1.01-0.93-3.06-0.65-5.04-0.56c-1.28-0.4-2.56-0.83-3.82-1.26
		c-0.24-0.31-0.37-0.59-0.34-0.75c0.17-0.56,0.27-1.13,0.28-1.72c0.61,0.18,1.18,0.46,1.7,0.82c2.32,1.72,3.29,1.23,3.83-0.66
		c-1.72-1.54-3.01-2.8-4.4-3.94c-3.47-2.86-6.68-6.27-10.59-8.3c-2.2-1.15-4.92-1.23-7.58-1.53c-1.13-0.22-2.25-0.43-3.38-0.64
		c-2.69-0.75-5.25-1.99-7.87-2.98c-3.58,0.15-7.49,0.37-11.4,0.46c-4.49,0.08-8.99,0-13.48,0l0.03,1.7c4.87,0,9.81-0.55,14.59,0.1
		c1.81,0.25,3.6,0.54,5.37,0.9c-0.31,0.21-0.64,0.41-0.97,0.59c0.8,1.03,1.38,2.53,2.43,3.01c5.42,2.47,11.06,4.48,16.41,7.09
		c1.44,0.7,2.13,2.94,3.17,4.48c-1.52,0.06-3.2,0.58-4.53,0.11c-0.68-0.25-1.33-0.55-1.95-0.91c0.94-0.46,2.02-1.09,3.23-1.58
		c-1.49-1.03-2.28-1.64-3.13-2.11c-1.81-1.01-3.62-2.04-5.5-2.89c-1.2-0.55-2.7-1.38-3.79-1.09c-0.94,0.25-1.89,0.41-2.85,0.5
		c-1.53-1.35-4.19-0.5-6.28-0.72c-3.25-0.37-6.56-1.17-9.75-0.84c-3.04,0.31-5.97,1.79-8.92,2.86c-0.69,0.25-1.25,1.38-1.82,1.35
		c-6.68-0.4-12.18,3.5-18.33,4.95c-2.01,0.47-3.99,1.38-4.44,3.06c-1.27,0.15-2.55,0.14-3.82-0.04c-0.37-0.05-0.84,0.27-1.17,0.54
		c-4.9,3.91-9.8,7.83-14.64,11.8c-0.75,0.6-1.19,1.56-1.77,2.35c8.75-5.95,4.99,4.38,7.09,5.5h10.91l-2.74,2.54l-0.56,0.37
		c-0.08-0.13-0.16-0.26-0.22-0.39c-2.75,3.11-7.46,3.13-10.6,5c-0.65,0.19-1.28,0.37-1.9,0.61c-0.47,0.16-0.82,1.51-0.75,2.34
		c-0.29,0.7-0.48,1.45-0.56,2.2l-0.8,0.56c-0.06-0.26-0.12-0.53-0.16-0.79l-0.66,0.26l-1.31-1c-2.3,1.9-3.85,3.34-5.55,4.55
		c-0.58,0.41-1.17,0.81-1.7,1.22c-3.58,0.03-4.36,2.68-4.38,4.69c-0.07,6.39-5.88,8.88-8.54,13.45c-0.07,0.13-0.16,0.25-0.24,0.37
		c-0.25,0.06-0.5,0.12-0.75,0.16c-0.4,0.06-0.7,0.88-0.96,1.85c-1.73,1.63-3.89,3.03-5.42,4.85c-2.39,2.82-3.97,6.34-6.39,9.12
		c-5.29,6.1-6.86,10.81-4.83,16.78c-1.25,1.97-2.49,3.88-3.67,5.79c-1.47,0.5-2.79,1.12-3.63,2.13c-2.7,3.22-3.92,7.76-5.36,11.88
		c-0.29,0.82,1.12,3.06,2.06,3.28c1.24,0.29,3.59-0.35,4.1-1.31v-0.02c0.11,0.24,0.23,0.48,0.35,0.75c0.43-1.05,0.99-1.29,1.61-1.12
		c-3.57,8.86-10.52,15.97-12.82,25.61c-0.78,3.28-0.56,5.36,1.12,7.73l4.1-0.92c-0.52,4.27-0.37,8.82-1.76,12.82
		c-1.29,3.68-0.63,5.76,2.12,8.01c0.57,0.47,0.43,3.02,0.22,3.07l0.85,32.23c0.89,6.79-0.56,13.72,2.38,20.48
		c1.35,3.1,1.44,8.62-0.47,10.88c-3.75,4.48,0.51,5.97,1.97,7.89c1.06,1.4,4.06,1.32,6.67,2.02c-0.16,1.41-1.37,4.35-0.59,6.61
		c1.34,3.87,3.79,7.4,6.05,10.9c1.27,1.97,1.82,2.68-1.12,3.53c-3.31,0.94-4.48,3.32-1.29,6.14c4.3,3.79,7.26,8.6,10.7,13.1
		c7.21,9.44,12.07,19.89,16.59,30.68c3.29,7.83,6.49,15.56,14.61,20.36c6.92,4.1,6.34,4.63,2.55,11.53
		c-1.49,2.74-2.4,2.52-4.08,0.52c-3.7-4.42-8.37-5.4-13.82-4c-1.61,0.34-3.27,0.4-4.9,0.16c-6.97-0.75-12.95,0.93-16.56,6.04
		c-2.7-3.23-5.02-6.67-8.01-9.41c-3.59-3.29-7.94-5.74-11.6-8.97c-7.41-6.55-12.9-7.46-21.28-2.83c-3.92,2.16-7.36,2.79-11.19-0.72
		c-5.6-5.13-11.71-9.7-18.38-15.16v63.45h139.81c-7.99-6.71-16.69-12.79-20.74-23.01c-0.73-1.96-0.96-4.06-0.68-6.13
		c3.16,4,6.53,7.87,9.41,12.06c1.84,2.67,2.67,3.97,6.4,1.82c1.94-1.12,6.3,1.23,9.21,2.71c6.34,3.22,12.23,7.46,18.79,10.07
		c2.56,1.02,7.18-0.25,9.48-2.16c3.2-2.66,6.3-2.58,9.62-2.04c9.26,1.49,18.08-0.75,26.86-2.98c3.64-0.97,7.11-2.48,10.3-4.48
		c3.11-1.95,5.92-4.35,8.32-7.13c2.59-2.98,5.06-2.92,8.42-1.15c3.69,1.94,8.15,2.49,12.33,3.36c0.59,0.12,2.01-1.27,2.24-2.16
		c1.67-6.98,6.59-9.7,12.87-10.17v4.44c1.71-0.37,3.41-0.78,5.13-1.12c0.62-0.13,1.26-0.16,1.9-0.24c-0.07,1.09,0.27,2.47-0.27,3.21
		c-2.46,3.38-4.95,6.8-7.83,9.81c-5.09,5.22-10.44,10.18-15.66,15.29c49.41,0,98.82,0.03,148.23,0.08c2.96,0,3.57-0.59,3.55-3.55
		C630.16,336.58,630.22,341.62,630.22,316.69z M548.42,193.66c-0.88,1.12-1.92,2.15-3.13,3.48c-1.44-4.09-0.43-9.31-5.62-9.66
		c0.44-1.87,1.79-4.38,1.12-5.22c-2.86-3.44-0.9-6.37,0.31-9.37c1-2.46,1.63-4.51-0.93-6.58c-0.77-0.62-0.55-2.53-0.63-3.86
		c0-0.21,0.86-0.75,1.18-0.65c0.46,0.13,1.08,0.68,1.12,1.12c0.75,6.46,1.28,12.96,2.24,19.4c0.23,1.49,1.77,2.91,2.91,4.17
		c1.14,1.26,3.04,2.14,3.68,3.6C550.99,190.82,549.32,192.51,548.42,193.66z M526.52,84.14c0.85,3.08,2.8,6.34,2.32,9.22
		c-1.01,6.05,3.25,9.56,5.3,14.11c1.75,3.89,4.66,7.54,5.26,11.56c0.41,2.76,2.12,3.7,3.04,5.54c1.66,3.31,2.1,7.21,3.44,10.72
		c1.63,4.26,4.2,8.21,5.32,12.57c0.72,2.79-0.43,6.07-0.75,9.13l-1.36-0.04c-0.84-2.98-1.65-5.97-2.56-8.92
		c-0.23-0.75-0.85-2.02-1.2-1.99c-4.63,0.41-5.39-4.21-7.75-6.39c-2.22-2.06-4.31-6.62-3.5-9.13c2.35-7.31-0.53-12.75-4.31-18.17
		c-3.6-5.16-4.04-10.52-2.92-16.62c0.66-3.6-0.6-7.54-1-11.33L526.52,84.14z M455.36-3.25c0.19,0.68,0.37,1.36,0.59,2.04l-0.57,0.1
		c-1.03-0.43-2.03-0.88-2.98-1.38L455.36-3.25z M363.07,310.36c-4.48,1.82-10.82-0.32-13.34-4.52c-0.56-0.94-0.18-2.45-0.24-3.7
		c3.73,6.44,4.18,6.34,11.54-3.42c-1.95,4.65-1.66,7.39,2.32,8.61C363.57,307.39,363.53,310.19,363.07,310.36z M363.35,279.55
		c2.29,0.04,4.59,0.06,6.89,0.12c0.63,0,1.25,0.16,2.74,1.23l-6.4,2.42l1.02,2.01L363.35,279.55z M368.63,296.85
		c-0.8,0.48-2.01,1.12-2.75,1.07l-0.68-1.12l-0.37,0.29c-0.43-0.76-0.74-1.58-0.92-2.43c-0.31-1.22-0.22-2.55-0.05-4.14
		c0.21,5.06,3.86,3.95,6.69,4.28C369.92,295.52,369.39,296.39,368.63,296.85L368.63,296.85z M382.73,286.55
		c1.87,0.23,3.87-0.82,5.83-1.29c1.12,4.91-0.21,6.29-4.89,5.02c-3.61-0.97-7.48-2.64-9.87,2.37c-0.44,0.91-1.9,1.34-2.98,1.95
		C372.28,288.31,376.16,285.72,382.73,286.55L382.73,286.55z M395.3,323.75c-0.23,0.79-0.49,1.58-0.76,2.36l-0.91,0.12l0.57,0.83
		c-1.04,2.79-2.31,5.52-3.54,8.24c-0.37,0.82-1.57,1.28-2.38,1.9c-0.43-1.07-1.39-2.28-1.16-3.19c0.41-1.61,1.71-2.98,2.32-4.55
		c0.71-1.83,1.87-4.07,1.36-5.62c-0.31-0.9-1.69-1.42-3.19-2.03c-0.37-0.56-0.85-1.19-1.45-1.92c-0.12,0.4-0.22,0.78-0.32,1.14
		l-0.1-0.05c0.32-0.88,0.92-2.38,1.38-3.92c0.75-2.44,0.65-5.25-2.32-5.3c-1.78-0.03-3.82,2.1-5.33,3.66
		c-1.01,1.04-1.28,2.79-1.89,4.22c-1.01-1.58-2.06-3.13-3.03-4.73c-1.12-1.83-2.91-3.7-2.91-5.55c0-1.08,3.83-1.82,4.39-3.3
		c1.73-4.61,5.76-5.66,9.87-7.46c1.01,10.29,1.01,10.29,7.97,8.93c-1.22,1.12-2.44,1.73-2.75,2.64c-0.37,1.12-0.39,2.78,0.22,3.65
		c0.62,0.87,2.24,1.12,3.39,1.68c0.32,0.16,0.82,0.46,0.82,0.69C395.56,318.72,395.99,321.4,395.3,323.75L395.3,323.75z
		 M406.57,321.37h-6.48c0.54-1.69,1.02-3.21,1.49-4.72l5.64,3.57C407.01,320.6,406.79,321.01,406.57,321.37L406.57,321.37z
		 M413.17,318.64c-0.67-1.96-1.09-4.06-2.08-5.84c-0.99-1.78-2.36-3.24-3.81-5.02c-0.03-0.2-0.05-0.4-0.08-0.61l-0.22,0.23
		l-0.21-0.26c0.11-0.07,2.06-1.57,2.24-1.39c2.07,2.22,4.39,4.46,5.55,7.16c0.61,1.44-0.87,3.79-1.38,5.73H413.17z M454.77,267.86
		c-0.75,0.42-1.53,0.79-2.31,1.12l-0.21-0.07l0.03,0.15c-1.35,0.59-2.73,1.12-4.02,1.83c-0.66,0.35-1.36,1.4-1.32,2.08
		c0.04,0.62,1.37,1.78,1.62,1.66c4.17-2,4.06,1.42,4.85,3.7c0.32,0.93,0.59,1.87,0.88,2.8l-0.68,0.91c-1.99-1.67-3.86-3.5-6-4.95
		c-1.93-1.32-4.04-2.34-6.27-3.04c-0.1-0.03-0.27,0.07-0.47,0.27c-0.22,0-0.45,0-0.68,0l-1.32,1.61l0.62,0.37
		c-0.19,0.35-0.32,0.73-0.41,1.12c-0.42,2.33-0.79,4.64,2.61,5.97c1.59,0.62,2.24,3.63,3.33,5.55l-0.96,0.97
		c-1.15-1.18-2.18-2.5-3.48-3.48c-1.05-0.84-2.31-1.38-3.64-1.59c-0.45,0.04-0.87,0.24-1.17,0.57l-0.93-0.19
		c-0.4,1.07-0.79,2.13-1.19,3.2c-2.14,3.26-4.71,6.51-5.09,9.99c-1.06,9.72-3.4,4.48-7.05,1.6c-2.28-1.79-5.97-2.06-9.11-2.38
		c-3.9-0.4-4.61-2.91-5.36-5.99c-0.31-1.28-1.64-2.7-2.86-3.23c-0.67-0.29-2.07,1.16-3.17,1.77c-1.1,0.61-2.24,1.14-3.36,1.71
		c0.21-1.27,0.29-2.57,0.66-3.79c0.52-1.69,1.54-3.26,1.82-4.97c0.27-1.71-0.13-3.49-0.23-5.22l-1.82,0.5
		c-0.24-1.44-0.68-2.85-1.31-4.17c0.1,4.48-2.88,4.57-5.89,5.02c-0.39-0.42-0.7-0.9-0.9-1.44c-0.48-1.12-3.16-1.35-5.64-2.29
		c0.59-1.03,1.97-3.01,2.94-5.18c0.87-1.97,1.96-4.2,1.77-6.2c-0.27-2.82-2.09-4.42-5.17-2.39c-0.86,0.57-1.91,0.84-3.66,0.43
		c1.22-1.78,2.44-3.55,3.65-5.33c1.01-1.49,2.91-3.01,2.85-4.48c-0.23-5.52,2.9-6.15,7.34-6.81c3.41-0.51,6.43-3.2,9.82-4.29
		c8.46-2.74,17.22-1,25.81-0.84c3.45,0.07,6.79,2.77,10.29,3.91c3.86,1.26,7.92,1.91,11.72,3.28c1.01,0.37,1.49,2.37,2.06,3.69
		c0.65,1.51,0.66,3.73,1.76,4.55C461.35,260.25,461.24,264.21,454.77,267.86z M505.76,206.38c0.68,5.43-3.09,8.77-5.03,12.92
		c-0.18,0.09-0.37,0.19-0.56,0.3c0.12,0.06,0.23,0.12,0.34,0.19c-0.51,1.15-0.8,2.38-0.87,3.64c-0.06,1.41-3.27,6.68-8.4,3.69
		c-1.53-0.87-3.43-0.79-4.88,0.21c-1.25,0.65-2.49,2.24-4.15,4.9l1.38,1.1c0.15,2.11-0.36,4.21-1.47,6.01
		c-0.17-0.09-0.33-0.19-0.48-0.29c0,0.37-0.03,0.72-0.05,1.09c-1.24,1.55-2.71,2.9-4.37,4c-1.09,0.75-2.54,2.48-2.29,3.3
		c0.35,1.15,2.03,2.06,3.31,2.73c2.4,1.26,4.93,2.28,6.34,2.92c0,2.32-0.72,4.75,0.13,6.34c2.52,4.67,2.88,6.85-0.37,11.64
		c0-2.13,0.45-4.4-0.13-6.34c-0.52-1.73-2.19-3.13-3.36-4.67c-1.18,1.14-2.84,2.09-3.42,3.48c-0.84,2-0.9,4.33-1.4,7.11
		c-1.18-2.83-2.01-5.34-3.27-7.62c-0.53-0.94-1.98-1.37-3.01-2.03c-0.65,1.42-1.3,2.83-1.95,4.25l-1.12-0.1
		c0.34-1.94,0.72-3.86,1.02-5.8c0.31-2.01,1.49-5.02,0.63-5.89c-3.73-3.71-3.92-10.73-11.38-11.28c-2.91-0.23-5.34-4.46-8.44-5.45
		c-5.56-1.71-10.73-4.48-15.24-8.15c-0.89-0.72-2.5-0.9-3.73-0.81c-5.16,0.37-10.3,0.95-15.45,1.41c-0.81,0.07-2.02,0.23-2.4-0.21
		c-5.01-5.76-8.71-1.38-12.31,1.67c-3.44,2.91-6.27,6.4-11.63,5.71c-1.36-0.17-2.98,2.02-4.54,3.05c-1.36,0.9-2.79,1.69-4.19,2.53
		c-0.35-1.81-0.86-3.61-0.98-5.43c-0.07-1.05,0.5-2.14,0.79-3.23c7.75,3.46,8.53,3.01,10.54-5.4c0.22-0.94,1.2-1.73,1.93-2.5
		c1.12-1.18,2.66-2.09,3.48-3.44c3.41-5.68,7.94-7.11,14.01-4.35c5.02,2.28,9.82,4.36,15.67,1.27c2.08-1.12,5.82,0.97,8.81,1.53
		c1.98,0.37,3.98,0.63,6.28,0.99c1.04,4.23,4.44,5.86,9.62,3.87s6.81-0.81,6.74,4.31c0,1.15,1.39,2.86,2.56,3.36
		c2.32,1.01,4.66,1.28,3.63,4.95c-0.29,1.02,1.32,2.98,2.53,3.87c0.63,0.46,2.86-0.12,3.36-0.89c0.91-1.38,1.89-3.59,1.38-4.85
		c-3.07-7.61-6.16-15.36-12.88-20.64c-4.63-3.64-9.59-6.86-14.39-10.28c-2.46-1.75-4.37-4.42-10.5-7.05
		c-2.13-0.92-5.7,2.89-6.92,3.81c-2.48,1.87-1.69,1.45-3.97,2c-0.29,0.07-1.79,0.24-2.51-0.12c-4.67-2.32-9.22-4.87-13.93-7.11
		c-1.08-0.51-2.95-0.62-3.86-0.02c-4.7,3.14-9.4,6.34-13.7,9.98c-2.7,2.28-4.35,5.85-7.12,8c-4.71,3.66-7.01,8.41-8.61,13.91
		c-1.39,4.76-4.16,8.97-3.54,14.44c0.7,6.21,0.54,6.46,8.16,3.65c-3.33,5.01-6.25,8.75-8.45,12.89c-0.95,1.73-2.16,3.31-3.6,4.67
		c-1.07-0.62-2.13,0.21-3.19,2.15c-0.18,0.34-0.37,0.69-0.54,1.03c-0.75,0.6-1.53,1.2-2.29,1.82c-1.01,0.82-1.59,2.47-1.9,3.84
		c-0.92,4.1,0.4,8.62-2.93,12.37c-1.22,1.37-1.01,4.01-2.56,6.24c-0.16-2.24-0.37-4.48-0.49-6.7c-0.09-1.27-0.08-2.54,0.03-3.8
		c0.21-1.87,0.16-3.95,0.99-5.53c1.75-3.36,1.37-5.75-1.84-7.46c-0.02-0.34-0.14-0.67-0.35-0.93c-1.76-1.94-4.42-3.1-6.8-4.44
		c-0.68-0.37-1.27-0.75-1.79-1.05c0.16-1.2,0.8-2.85,1.74-5.35c0.66-1.73-0.28-4.06-0.48-6.12l-0.04,0.03
		c0.06-1.12-0.42-2.35-1.92-3.92c-0.81,2.17-1.6,4.27-2.37,6.34c-0.3,0.24-0.56,0.51-0.79,0.82c-1.54,2.11-2.24,4.85-3.64,8.18
		c-0.53-1.73-1.06-2.61-1-3.44c0.16-1.15,0.5-2.26,1.02-3.29c1.49-3.29,0.3-5.48-1.79-8.33c-1.12-1.54,1.45-5.44,1.18-8.16
		c-0.02-0.13-0.06-0.26-0.13-0.37c1.49-0.29,2.66,1.05,3.93,4.04c1.59-5.83,1.66-6-5.76-8.77c-4.48-1.67-3.93,1.83-4.85,4.1
		c-0.43,0.47-0.84,0.95-1.22,1.47c-0.19,0.1-0.39,0.17-0.6,0.21l0.29,0.22c-0.53,0.77-0.98,1.6-1.32,2.47
		c-0.75,1.91,0.13,4.45,0.29,6.71c-0.81-0.94-2.17-1.81-2.29-2.82c-0.29-2.67,0.15-5.42-0.07-8.11c-0.11-1.29-0.75-2.91-1.72-3.62
		c-0.66-0.48-2.81-0.04-3.36,0.69c-0.75,1-0.73,2.66-0.75,4.05c0,0.61,0.67,1.24,1.43,2.52c-6.24-3.56-7.37-6.51-3.36-12.96
		c1.36-2.19,2.61-4.45,4.03-6.94c2,2.2,5.14,2.88,4.8,7.21c-0.28,3.65,3.89,4.73,6.82,2.15c2.21-1.94,3.73-3.97,4.59-6.23l0.19-0.06
		c2.96-0.81,2.81-1.68,1.62-4.7c-0.41-1.05-0.8-2.12-1.17-3.19c-0.33-2.05-0.84-4.06-1.52-6.02c-0.91-2.78-1.43-5.68-1.53-8.61
		c-0.19-4.63-0.33-9.27-0.46-13.9c0.23-2.75,0.27-5.52,0.11-8.28c-0.17-2.32-0.36-4.63-0.57-6.94c-0.17-4.93-0.37-9.86-0.64-14.78
		c-0.19-3.36-1.03-6.71-1.9-10.05c-0.41-3.68-0.81-7.36-1.22-11.04c-0.44-4.08-1.2-8.12-1.93-12.89c1.36-2.24,3.36-5.36,5.08-8.61
		c0.31-0.58-0.22-2.06-0.83-2.61l-1.66-6.24c-0.21-0.1-0.43-0.21-0.65-0.3c-0.32-0.15-0.65-0.29-0.97-0.43
		c-0.25-0.98-0.48-1.87-0.7-2.73c0.17-0.2,0.31-0.41,0.44-0.63c0.59-1.08,1.17-2.16,1.75-3.24c0.9-0.3,1.69-0.67,2.05-1.29
		c2.22-3.73,3.71-7.91,5.5-11.9c1.7-3.79,3.36-7.59,5.1-11.37c0.29-0.56,0.59-1.12,0.89-1.67c1.71-3.16,3.61-6.21,5.45-9.31
		c0.5-0.56,1.01-1.12,1.49-1.66c0.94-1.07,2.24-1.97,2.79-3.21c1.49-3.4,2.81-6.92,4.96-9.76c2.1-0.71,3.42-2.24,4.5-3.92
		c0.86-0.46,1.76-0.84,2.69-1.12c0.56-0.18,1.02-0.58,1.27-1.12c0.45-1.7,1.06-3.35,1.81-4.94c4.18-2.33,8.03-5.51,13.95-5.7
		c4.43-0.15,10.78,1.12,14.82-3.97c0.27,0.02,0.54,0.04,0.81,0.05c0.82,0.03,1.66-0.88,2.49-1.36c-0.16-0.21-0.32-0.43-0.46-0.66
		c1.78-0.36,3.61-0.45,5.42-0.26c5.77,0.57,11.44,2.12,17.2,2.71c4.8,0.49,9.83,0.9,14.5,0c4.67-0.9,8.12,0.12,12.57,1.63
		c6.51,2.21,10.44,8.75,18.16,8.95c3.07,0.08,6.17,4.6,8.97,7.38c3.2,3.17,6.82,6.25,8.99,10.07c6.03,10.66,12.33,21.34,13.82,33.86
		c0.51,4.32,0.24,8.73,0.67,13.06c0.16,1.61,1.12,3.25,2.05,4.64c2.2,3.24,2.19,6.19,0,9.51c-1.18,1.8-3.56,4.59,1.16,5.52
		c0.29,0.06,0.6,0.69,0.66,1.1c0.75,4.85,2.24,9.73,1.96,14.51c-0.91,15.15,3.01,29.79,3.93,44.7
		C506.65,191.19,504.83,198.94,505.76,206.38z M324.53,109.35h0.06c0,0.06-0.03,0.12-0.05,0.18
		C324.53,109.47,324.53,109.41,324.53,109.35z"/>
	<path style="clip-path:url(#SVGID_00000175285528416211196640000004988478248982833555_);fill:#A23166;" d="M278.84,136.82
		l0.13-0.07l0,0c-0.04-0.05-0.07-0.1-0.1-0.14h-0.03C278.83,136.68,278.84,136.73,278.84,136.82z"/>
	<path style="clip-path:url(#SVGID_00000175285528416211196640000004988478248982833555_);fill:#A23166;" d="M353.04,105.54
		c-1.49,0.68-8.62,13.02-12.57,19.77c-0.56,0.95,0.47,2.84,0.76,4.3c1.47-0.53,3.48-0.63,4.32-1.67
		c4.85-5.99,10.48-10.82,17.86-13.25c6.57-2.18,13.11-4.69,19.87-5.97c3.06-0.58,6.65,1.36,9.93,2.4c1.59,0.51,4,2.58,4.32,2.24
		c2.34-2.39,7.38-2.73,6.5-7.67c-0.16-0.9-1.1-1.97-1.95-2.36c-3.26-1.52-6.61-2.85-10.02-4c-5.43-1.76-10.79-3.05-16.61-0.72
		c-4.1,1.64-11.71,2.53-13.06,3.08C361.06,102.24,354.55,104.86,353.04,105.54z"/>
	<path style="clip-path:url(#SVGID_00000175285528416211196640000004988478248982833555_);fill:#A23166;" d="M473.19,98.65
		c-2.18-1.75-5.81-3.75-7.96-3.07c-6.15,1.95-11.9-1.15-17.78-0.25c-2.24,0.34-4.39,1.09-6.6,1.54c-1.63,0.39-3.3,0.64-4.97,0.75
		c-2.96,0.11-5.04,1-4.91,5.92c0.69,0.37,1.93,1.39,3.33,1.74c2.17,0.54,4.48,0.57,6.68,0.95c6.94,1.19,13.53,3.53,21,2.61
		c4.26-0.53,9.33,2.04,13.38,4.38c4.25,2.45,7.65,6.36,11.59,9.42c0.46,0.37,2.7-0.43,2.88-1.05c1.12-3.8-0.03-7.35-2.7-10.07
		C482.68,107.01,478.11,102.59,473.19,98.65z"/>
	<path style="clip-path:url(#SVGID_00000175285528416211196640000004988478248982833555_);fill:#A23166;" d="M382.49,129.67
		c-1.04-0.05-3.17,1.64-3.09,2.33c0.47,4.19-2.28,2.95-4.38,2.96c-1.56,0-3.34-0.43-4.64,0.16c-5.08,2.33-10.23,4.66-14.92,7.64
		c-3.44,2.18-2.75,5.97,1.08,8.17c2.11,1.23,4.32,2.43,6.63,3.12c1.53,0.46,3.33,0,5.01-0.07c-0.58-1.49-1.05-3.04-1.78-4.46
		c-0.44-0.84-1.67-1.38-1.87-2.22c-0.25-1.01,0.2-2.2,0.35-3.31c0.95,0.31,2.27,0.32,2.8,0.97c1.44,1.75,2.29,4.04,3.87,5.62
		c1.39,1.39,3.83,3.25,5.14,2.83c1.87-0.61,3.6-2.88,4.54-4.85c1-2.12,1.01-4.71,1.45-7.09l1.44-0.57c0.75,2.07,1.28,4.26,2.3,6.19
		c1.09,2.06,2.63,3.88,3.97,5.8c2.07-2.05,5.38-3.8,5.97-6.2C397.99,139.77,389.77,130.04,382.49,129.67z"/>
	<path style="clip-path:url(#SVGID_00000175285528416211196640000004988478248982833555_);fill:#A23166;" d="M446.87,135.94
		c-1.68,0.85-3.51,1.42-5.26,2.13l-1.08-1.49c-1.7,1.77-4.01,3.27-4.91,5.38c-0.72,1.7-0.37,4.51,0.62,6.14
		c2.14,3.48,4.88,6.64,7.65,9.68c0.91,1,2.66,1.55,4.08,1.67c0.85,0.07,2.61-1.25,2.55-1.66c-0.24-1.2-1.43-2.18-1.84-3.38
		c-1.06-3.16-2.44-6.38-2.56-9.62c-0.04-1.16,3.16-3.42,4.87-3.42c1.87,0,4.01,1.89,1.43,4.51c-0.37,0.39-0.08,1.8,0.29,2.55
		c2.51,5.07,7.81,5.01,11.97-1c2.85-4.12,3.73-4.08,5.97,0.21c2.15,4.16,5.22,1.15,7.37-0.26c0.85-0.56,1.12-3.97,0.35-4.76
		C470.48,134.75,458.71,129.93,446.87,135.94z"/>
	<path style="clip-path:url(#SVGID_00000175285528416211196640000004988478248982833555_);fill:#A23166;" d="M404.46,183.9
		c-2.75,0.95-5.49,3.5-6.98,6.08c-1.2,2.09,4.27,5.17,10.66,5.17c0.75-0.72,3.11-1.94,3.52-3.63
		C412.44,188.3,407.45,182.87,404.46,183.9z"/>
	<path style="clip-path:url(#SVGID_00000175285528416211196640000004988478248982833555_);fill:#A23166;" d="M445.87,128.19
		c-1.58,0.96-2.91,2.28-3.88,3.85c-0.28,0.48,1.25,2.03,2.5,3.92c1.83-2.39,3.14-3.91,4.08-5.61
		C448.69,130.15,446.22,127.97,445.87,128.19z"/>
	<path style="clip-path:url(#SVGID_00000175285528416211196640000004988478248982833555_);fill:#A23166;" d="M443.38,251.66
		c-2.32-1.06-3.36-1.6-4.45-2.02c-3.69-1.42-7.3-3.33-11.13-4.05l-1.15-0.21c-3.73-0.97-7.83-2.01-11.42-1.32l-0.55,0.11
		c-0.82,0.04-1.65,0.1-2.46,0.22c-6.03,0.84-9.24,2.24-11.16,5.41c-3.52,1.87-4.38,7.89-2.36,10.84c0.85,1.23,1.56,2.55,2.12,3.94
		c-0.52,0.4-1.16,0.84-1.92,1.35c0.74,1.21,1.71,2.27,2.85,3.12c0.46,3.8,2.45,5.52,6.31,4.78c2.86-0.55,5.97-0.1,8.73-0.86
		c3.62-1,3.81,3.29,5.18,3.36c3.92,0.18,5.67,2.41,7.7,5.06c0.59,0.77,2.78,0.68,4.1,0.37c0.57-0.14,1.35-2.24,1-2.78
		c-0.89-1.3-1.85-2.54-2.88-3.73c-0.06-0.1-0.14-0.2-0.23-0.28c-0.66-0.77-1.31-1.49-1.89-2.22c0.88-1.7,3.44-4.52,2.82-5.82
		c-2.05-4.29,1.36-3.36,3.11-4.44c2.17-1.36,3.96-3.32,5.91-5.02c-1.26-0.62-1.56-1.35-1.47-2.11L443.38,251.66z"/>
	<path style="clip-path:url(#SVGID_00000175285528416211196640000004988478248982833555_);fill:#A23166;" d="M360.96,78.92h0.15
		c0-0.04-0.02-0.08-0.03-0.12L360.96,78.92z"/>
	<path style="clip-path:url(#SVGID_00000175285528416211196640000004988478248982833555_);fill:#A23166;" d="M444.15,79.39
		c2.49,0.59,5.38-0.48,8.08-0.79c-0.85-1.47-1.78-2.2-2.61-2.1c-8.67,1.05-17.31,2.41-26,3.33c-5.49,0.57-11.59,2.13-16.44,0.44
		c-9-3.13-17.92-3.15-27.03-2.81c-6.34,0.24-12.68,0.95-19.04,1.46c0.65,2.85,2.05,4.1,5.39,3.63c5.73-0.8,11.51-1.3,17.29-1.49
		c4.41-0.18,8.95-0.28,13.25,0.5c9.58,1.72,18.68,4.36,28.79,0.63C431.27,80.16,437.57,77.83,444.15,79.39z"/>
	<path style="clip-path:url(#SVGID_00000175285528416211196640000004988478248982833555_);fill:#A23166;" d="M390.01,71.25
		c5.37,0.93,10.64,2.61,15.84,4.3c4.02,1.31,7.83,2.36,12.84-0.84c-15.29-3.51-28.92-10.63-44.85-5.13
		c1.12,0.46,1.76,0.96,2.44,0.99C380.86,70.81,385.53,70.47,390.01,71.25z"/>
	<path style="clip-path:url(#SVGID_00000175285528416211196640000004988478248982833555_);fill:#A23166;" d="M424.84,72.25h34.79
		c0.04-0.56,0.08-1.12,0.12-1.69c-5.53-0.46-11.06-1.32-16.59-1.26c-6.22,0.07-12.43,0.98-18.65,1.52L424.84,72.25z"/>
	<path style="clip-path:url(#SVGID_00000175285528416211196640000004988478248982833555_);fill:#A23166;" d="M417.93,57.25
		c-1.01-0.75-2.3-2.28-2.98-2.05c-4.7,1.57-8.49-0.55-12.51-2.31c-1.07-0.47-2.66,0.22-5.22,0.52
		C404.21,58.75,410.69,59.07,417.93,57.25z"/>
	<path style="clip-path:url(#SVGID_00000175285528416211196640000004988478248982833555_);fill:#A23166;" d="M401.67,65.07
		l14.82,1.23c0-0.65,0-1.3,0.02-1.95l-14.66-1.42L401.67,65.07z"/>
	<path style="clip-path:url(#SVGID_00000175285528416211196640000004988478248982833555_);fill:#A23166;" d="M419.57,65.06
		l11.43-3.02C425.81,58.99,422.81,59.89,419.57,65.06z"/>
	<path style="clip-path:url(#SVGID_00000175285528416211196640000004988478248982833555_);fill:#A23166;" d="M431.57,184.93
		c-1.87-1.37-5.7-2.71-6.92-1.78c-2.48,1.87-4.04,5.2-5.37,8.21c-0.24,0.53,3.28,3.08,3.88,3.47c0.6,0.39,8.6,1,9.53-0.21
		C433.61,193.4,436.21,188.32,431.57,184.93z"/>
	<g style="clip-path:url(#SVGID_00000175285528416211196640000004988478248982833555_);">
		<path class="st4" d="M451.81,181.91c-14.51,0-26.31-12.78-26.31-28.49V125.9H404.5v27.51c0,15.71-11.8,28.49-26.31,28.49h-30.4
			c-14.51,0-26.31-12.78-26.31-28.49l0.03-35.33h187v35.33c0,15.71-11.8,28.49-26.31,28.49H451.81z"/>
		<path class="st5" d="M505.91,120.7v32.71c0,14.27-10.63,25.88-23.69,25.88h-30.4c-13.06,0-23.69-11.61-23.69-25.88v-30.13h-26.23
			v30.13c0,14.27-10.63,25.88-23.69,25.88h-30.4c-13.06,0-23.69-11.61-23.69-25.88l0.03-32.72L505.91,120.7 M511.1,115.48H318.9
			l-0.03,37.94c0,17.16,12.97,31.1,28.92,31.1h30.4c15.95,0,28.92-13.95,28.92-31.1v-24.9h15.79v24.9c0,17.16,12.97,31.1,28.92,31.1
			h30.4c15.95,0,28.92-13.95,28.92-31.1v-37.93L511.1,115.48L511.1,115.48z"/>
	</g>
</g>
</svg>
